<?xml version="1.0" ?>
<!DOCTYPE svg  PUBLIC '-//W3C//DTD SVG 1.1//EN'  'http://www.w3.org/Graphics/SVG/1.1/DTD/svg11.dtd'>
<!-- Uploaded to: SVG Repo, www.svgrepo.com, Generator: SVG Repo Mixer Tools -->
<svg width="800px" height="800px" viewBox="0 0 32 32" enable-background="new 0 0 32 32" version="1.1" xml:space="preserve" xmlns="http://www.w3.org/2000/svg" xmlns:xlink="http://www.w3.org/1999/xlink">
<g id="Layer_2"/>
<g id="Layer_3"/>
<g id="Layer_4"/>
<g id="Layer_5"/>
<g id="Layer_6"/>
<g id="Layer_7"/>
<g id="Layer_8"/>
<g id="Layer_9"/>
<g id="Layer_10"/>
<g id="Layer_11"/>
<g id="Layer_12">
<g>
<path d="M24,13H8c-0.6,0-1,0.4-1,1s0.4,1,1,1h16c0.6,0,1-0.4,1-1S24.6,13,24,13z" fill="#2197F3"/>
<path d="M19,18c0-0.6-0.4-1-1-1H6c-0.6,0-1,0.4-1,1s0.4,1,1,1h12C18.6,19,19,18.6,19,18z" fill="#2197F3"/>
<path d="M21,21H9c-0.6,0-1,0.4-1,1s0.4,1,1,1h12c0.6,0,1-0.4,1-1S21.6,21,21,21z" fill="#2197F3"/>
<path d="M20,25h-8c-0.6,0-1,0.4-1,1s0.4,1,1,1h8c0.6,0,1-0.4,1-1S20.6,25,20,25z" fill="#2197F3"/>
<path d="M18,29h-4c-0.6,0-1,0.4-1,1s0.4,1,1,1h4c0.6,0,1-0.4,1-1S18.6,29,18,29z" fill="#2197F3"/>
<path d="M28,1H2C1.4,1,1,1.4,1,2s0.4,1,1,1h26c0.6,0,1,0.4,1,1s-0.4,1-1,1H6C4.3,5,3,6.3,3,8s1.3,3,3,3h20    c0.6,0,1-0.4,1-1s-0.4-1-1-1H6C5.4,9,5,8.6,5,8s0.4-1,1-1h22c1.7,0,3-1.3,3-3S29.7,1,28,1z" fill="#2197F3"/>
</g>
</g>
<g id="Layer_13"/>
<g id="Layer_14"/>
<g id="Layer_15"/>
<g id="Layer_16"/>
<g id="Layer_17"/>
<g id="Layer_18"/>
<g id="Layer_19"/>
<g id="Layer_20"/>
<g id="Layer_21"/>
<g id="Layer_22"/>
<g id="Layer_23"/>
<g id="Layer_24"/>
<g id="Layer_25"/>
<g id="Wearher"/>
</svg>